<?xml version="1.0" standalone="no"?>
<!DOCTYPE svg PUBLIC "-//W3C//DTD SVG 20010904//EN"
 "http://www.w3.org/TR/2001/REC-SVG-20010904/DTD/svg10.dtd">
<svg version="1.0" xmlns="http://www.w3.org/2000/svg"
 width="225.000000pt" height="225.000000pt" viewBox="0 0 225.000000 225.000000"
 preserveAspectRatio="xMidYMid meet">

<g transform="translate(0.000000,225.000000) scale(0.100000,-0.100000)"
fill="#000000" stroke="none">
<path d="M1530 1881 c0 -6 5 -13 10 -16 6 -3 10 1 10 9 0 9 -4 16 -10 16 -5 0
-10 -4 -10 -9z"/>
<path d="M1522 1830 c0 -19 2 -27 5 -17 2 9 2 25 0 35 -3 9 -5 1 -5 -18z"/>
<path d="M1552 1820 c0 -19 2 -27 5 -17 2 9 2 25 0 35 -3 9 -5 1 -5 -18z"/>
<path d="M1410 1810 c-31 -7 -29 -8 22 -9 47 -1 60 -5 72 -23 12 -17 16 -19
16 -6 0 13 -59 51 -72 47 -1 -1 -19 -5 -38 -9z"/>
<path d="M1305 1785 c-39 -18 -31 -18 25 -1 25 8 36 15 25 15 -11 0 -33 -6
-50 -14z"/>
<path d="M1610 1780 l-35 -7 35 -1 c19 0 44 3 55 8 l20 9 -20 -1 c-11 0 -36
-4 -55 -8z"/>
<path d="M1541 1753 c-6 -14 -9 -28 -6 -31 3 -3 5 0 5 6 0 6 7 17 15 26 8 8
11 17 7 20 -5 3 -14 -6 -21 -21z"/>
<path d="M1235 1760 c-3 -6 1 -7 9 -4 18 7 21 14 7 14 -6 0 -13 -4 -16 -10z"/>
<path d="M1703 1621 c-24 -20 -29 -31 -14 -31 5 0 16 11 25 25 20 30 18 30
-11 6z"/>
<path d="M1645 1600 c-19 -8 -19 -9 3 -9 12 -1 22 4 22 9 0 6 -1 10 -2 9 -2 0
-12 -4 -23 -9z"/>
<path d="M1780 1571 c14 -11 30 -21 37 -21 17 0 92 -89 110 -130 8 -19 30 -80
48 -135 18 -55 37 -109 41 -120 6 -15 -3 -11 -36 15 -108 86 -200 196 -185
221 4 5 0 9 -7 9 -17 1 -54 50 -37 50 6 0 20 -10 30 -22 26 -29 24 -13 -2 24
-17 23 -24 27 -31 16 -7 -9 -8 -7 -5 9 4 16 1 20 -11 16 -11 -5 -14 -2 -9 11
4 9 3 15 -2 11 -5 -3 -16 4 -24 16 -11 15 -16 17 -20 7 -3 -10 -13 -8 -44 8
l-40 21 16 -28 c15 -27 15 -29 -18 -76 -19 -26 -26 -41 -16 -33 17 14 18 13
11 -10 -22 -69 -19 -147 9 -232 26 -78 78 -178 94 -178 4 0 6 26 3 57 -3 32 1
122 8 200 11 119 11 147 0 168 -7 14 -11 28 -7 31 3 4 30 -31 60 -77 58 -89
142 -176 217 -226 54 -36 77 -34 56 5 -7 15 -23 63 -35 107 -45 164 -97 239
-201 289 l-35 17 25 -20z m-50 -95 c0 -5 -8 -1 -19 10 -10 10 -16 23 -14 27 5
9 32 -22 33 -37z m-80 22 c0 -6 -8 -21 -17 -32 -14 -17 -13 -16 8 2 l27 23 14
-28 c16 -34 15 -117 -4 -273 -13 -109 -14 -113 -26 -81 -7 19 -12 47 -12 63 0
16 -4 27 -9 24 -5 -3 -12 1 -15 10 -9 24 -7 36 5 28 9 -5 10 1 5 22 -13 48
-12 114 1 114 6 0 9 9 6 21 -11 40 -26 -10 -25 -80 1 -44 -2 -61 -8 -51 -16
25 -11 109 10 181 12 38 25 69 30 69 6 0 10 -5 10 -12z"/>
<path d="M1661 1454 c0 -11 3 -14 6 -6 3 7 2 16 -1 19 -3 4 -6 -2 -5 -13z"/>
<path d="M1383 1561 c-19 -12 -33 -16 -35 -9 -2 6 -9 3 -17 -6 -12 -14 -11
-16 5 -16 11 0 28 7 38 15 28 21 33 19 31 -12 -1 -16 0 -19 2 -8 3 11 12 28
20 38 22 24 -2 23 -44 -2z"/>
<path d="M1411 1464 c0 -11 3 -14 6 -6 3 7 2 16 -1 19 -3 4 -6 -2 -5 -13z"/>
<path d="M1421 1414 c0 -11 3 -14 6 -6 3 7 2 16 -1 19 -3 4 -6 -2 -5 -13z"/>
<path d="M1500 1395 c-38 -28 -56 -31 -63 -12 -3 7 -6 5 -6 -5 -1 -10 6 -18
14 -18 21 0 68 25 84 44 18 21 12 20 -29 -9z"/>
</g>
</svg>
